<?xml version="1.0" encoding="utf-8"?>
<!-- Generator: Adobe Illustrator 16.0.0, SVG Export Plug-In . SVG Version: 6.00 Build 0)  -->
<!DOCTYPE svg PUBLIC "-//W3C//DTD SVG 1.1//EN" "http://www.w3.org/Graphics/SVG/1.1/DTD/svg11.dtd">
<svg version="1.1" id="Calque_1" xmlns="http://www.w3.org/2000/svg" xmlns:xlink="http://www.w3.org/1999/xlink" x="0px" y="0px"
	 width="640px" height="640px" viewBox="0 0 640 640" enable-background="new 0 0 640 640" xml:space="preserve">
<defs>
	<path id="SVGID_1_" d="M640,500c0,77.32-62.68,140-140,140H140C62.68,640,0,577.32,0,500V140C0,62.68,62.68,0,140,0h360
		c77.32,0,140,62.68,140,140V500z"/>
</defs>
<clipPath id="SVGID_2_">
	<use xlink:href="#SVGID_1_"  display="none" overflow="visible"/>
</clipPath>
<g clip-path="url(#SVGID_2_)">
	<path shape-rendering="geometricPrecision" fill="#FB0055" d="M-73.548-32l-35.777,64h71.555L-73.548-32z"/>
	<path shape-rendering="geometricPrecision" fill="#F10055" d="M-73.548-32l35.777,64l35.777-64H-73.548z"/>
	<path shape-rendering="geometricPrecision" fill="#D20055" d="M-1.993-32L-37.77,32h71.554L-1.993-32z"/>
	<path shape-rendering="geometricPrecision" fill="#E70055" d="M-1.993-32l35.776,64L69.56-32H-1.993z"/>
	<path shape-rendering="geometricPrecision" fill="#D80055" d="M69.561-32L33.783,32h71.555L69.561-32z"/>
	<path shape-rendering="geometricPrecision" fill="#D40055" d="M69.561-32l35.777,64l35.777-64H69.561z"/>
	<path shape-rendering="geometricPrecision" fill="#CF0055" d="M141.115-32l-35.777,64h71.554L141.115-32z"/>
	<path shape-rendering="geometricPrecision" fill="#BE0055" d="M141.115-32l35.776,64l35.777-64H141.115z"/>
	<path shape-rendering="geometricPrecision" fill="#BF0055" d="M212.669-32l-35.777,64h71.555L212.669-32z"/>
	<path shape-rendering="geometricPrecision" fill="#B50055" d="M212.669-32l35.777,64l35.777-64H212.669z"/>
	<path shape-rendering="geometricPrecision" fill="#BA0055" d="M284.224-32l-35.777,64h71.555L284.224-32z"/>
	<path shape-rendering="geometricPrecision" fill="#AF0055" d="M284.224-32l35.777,64l35.776-64H284.224z"/>
	<path shape-rendering="geometricPrecision" fill="#B00055" d="M355.777-32l-35.776,64h71.554L355.777-32z"/>
	<path shape-rendering="geometricPrecision" fill="#970055" d="M355.777-32l35.776,64l35.777-64H355.777z"/>
	<path shape-rendering="geometricPrecision" fill="#870055" d="M427.332-32l-35.777,64h71.555L427.332-32z"/>
	<path shape-rendering="geometricPrecision" fill="#950055" d="M427.332-32l35.776,64l35.776-64H427.332z"/>
	<path shape-rendering="geometricPrecision" fill="#890055" d="M498.886-32l-35.776,64h71.555L498.886-32z"/>
	<path shape-rendering="geometricPrecision" fill="#8B0055" d="M498.886-32l35.777,64l35.776-64H498.886z"/>
	<path shape-rendering="geometricPrecision" fill="#730055" d="M570.44-32l-35.777,64h71.554L570.44-32z"/>
	<path shape-rendering="geometricPrecision" fill="#800055" d="M570.44-32l35.775,64l35.777-64H570.44z"/>
	<path shape-rendering="geometricPrecision" fill="#6D0055" d="M641.994-32l-35.777,64h71.556L641.994-32z"/>
	<path shape-rendering="geometricPrecision" fill="#710055" d="M641.994-32l35.777,64l35.776-64H641.994z"/>
	<path shape-rendering="geometricPrecision" fill="#590055" d="M713.549-32l-35.776,64h71.554L713.549-32z"/>
	<path shape-rendering="geometricPrecision" fill="#EC0055" d="M-109.325,32l35.777,64l35.777-64H-109.325z"/>
	<path shape-rendering="geometricPrecision" fill="#F00055" d="M-37.771,32l-35.777,64h71.555L-37.771,32z"/>
	<path shape-rendering="geometricPrecision" fill="#CD0055" d="M-37.771,32l35.777,64l35.776-64H-37.771z"/>
	<path shape-rendering="geometricPrecision" fill="#D70055" d="M33.783,32L-1.993,96h71.554L33.783,32z"/>
	<path shape-rendering="geometricPrecision" fill="#C00055" d="M33.783,32L69.56,96l35.777-64H33.783z"/>
	<path shape-rendering="geometricPrecision" fill="#C90055" d="M105.338,32L69.561,96h71.555L105.338,32z"/>
	<path shape-rendering="geometricPrecision" fill="#BE0055" d="M105.338,32l35.777,64l35.776-64H105.338z"/>
	<path shape-rendering="geometricPrecision" fill="#AD0055" d="M176.892,32l-35.776,64h71.554L176.892,32z"/>
	<path shape-rendering="geometricPrecision" fill="#B10055" d="M176.892,32l35.777,64l35.777-64H176.892z"/>
	<path shape-rendering="geometricPrecision" fill="#B50055" d="M248.446,32l-35.777,64h71.555L248.446,32z"/>
	<path shape-rendering="geometricPrecision" fill="#9C0055" d="M248.446,32l35.777,64L320,32H248.446z"/>
	<path shape-rendering="geometricPrecision" fill="#980055" d="M320.001,32l-35.777,64h71.554L320.001,32z"/>
	<path shape-rendering="geometricPrecision" fill="#A90055" d="M320.001,32l35.776,64l35.776-64H320.001z"/>
	<path shape-rendering="geometricPrecision" fill="#870055" d="M391.555,32l-35.776,64h71.555L391.555,32z"/>
	<path shape-rendering="geometricPrecision" fill="#890055" d="M391.555,32l35.777,64l35.776-64H391.555z"/>
	<path shape-rendering="geometricPrecision" fill="#770055" d="M463.108,32l-35.776,64h71.554L463.108,32z"/>
	<path shape-rendering="geometricPrecision" fill="#740055" d="M463.108,32l35.776,64l35.777-64H463.108z"/>
	<path shape-rendering="geometricPrecision" fill="#840055" d="M534.663,32l-35.777,64h71.556L534.663,32z"/>
	<path shape-rendering="geometricPrecision" fill="#630055" d="M534.663,32l35.777,64l35.775-64H534.663z"/>
	<path shape-rendering="geometricPrecision" fill="#710055" d="M606.217,32L570.44,96h71.554L606.217,32z"/>
	<path shape-rendering="geometricPrecision" fill="#6F0055" d="M606.217,32l35.777,64l35.776-64H606.217z"/>
	<path shape-rendering="geometricPrecision" fill="#540055" d="M677.771,32l-35.777,64h71.555L677.771,32z"/>
	<path shape-rendering="geometricPrecision" fill="#610055" d="M677.771,32l35.776,64l35.776-64H677.771z"/>
	<path shape-rendering="geometricPrecision" fill="#D50055" d="M-73.548,96l-35.777,64h71.555L-73.548,96z"/>
	<path shape-rendering="geometricPrecision" fill="#D90055" d="M-73.548,96l35.777,64l35.777-64H-73.548z"/>
	<path shape-rendering="geometricPrecision" fill="#CB0055" d="M-1.993,96l-35.777,64h71.554L-1.993,96z"/>
	<path shape-rendering="geometricPrecision" fill="#CE0055" d="M-1.993,96l35.776,64L69.56,96H-1.993z"/>
	<path shape-rendering="geometricPrecision" fill="#C10055" d="M69.561,96l-35.777,64h71.555L69.561,96z"/>
	<path shape-rendering="geometricPrecision" fill="#C60055" d="M69.561,96l35.777,64l35.777-64H69.561z"/>
	<path shape-rendering="geometricPrecision" fill="#BC0055" d="M141.115,96l-35.777,64h71.554L141.115,96z"/>
	<path shape-rendering="geometricPrecision" fill="#C10055" d="M141.115,96l35.776,64l35.777-64H141.115z"/>
	<path shape-rendering="geometricPrecision" fill="#A70055" d="M212.669,96l-35.777,64h71.555L212.669,96z"/>
	<path shape-rendering="geometricPrecision" fill="#B10055" d="M212.669,96l35.777,64l35.777-64H212.669z"/>
	<path shape-rendering="geometricPrecision" fill="#AA0055" d="M284.224,96l-35.777,64h71.555L284.224,96z"/>
	<path shape-rendering="geometricPrecision" fill="#9D0055" d="M284.224,96l35.777,64l35.776-64H284.224z"/>
	<path shape-rendering="geometricPrecision" fill="#900055" d="M355.777,96l-35.776,64h71.554L355.777,96z"/>
	<path shape-rendering="geometricPrecision" fill="#8E0055" d="M355.777,96l35.776,64l35.777-64H355.777z"/>
	<path shape-rendering="geometricPrecision" fill="#7B0055" d="M427.332,96l-35.777,64h71.555L427.332,96z"/>
	<path shape-rendering="geometricPrecision" fill="#840055" d="M427.332,96l35.776,64l35.776-64H427.332z"/>
	<path shape-rendering="geometricPrecision" fill="#7D0055" d="M498.886,96l-35.776,64h71.555L498.886,96z"/>
	<path shape-rendering="geometricPrecision" fill="#7F0055" d="M498.886,96l35.777,64l35.776-64H498.886z"/>
	<path shape-rendering="geometricPrecision" fill="#5C0055" d="M570.44,96l-35.777,64h71.554L570.44,96z"/>
	<path shape-rendering="geometricPrecision" fill="#5C0055" d="M570.44,96l35.775,64l35.777-64H570.44z"/>
	<path shape-rendering="geometricPrecision" fill="#570055" d="M641.994,96l-35.777,64h71.556L641.994,96z"/>
	<path shape-rendering="geometricPrecision" fill="#550055" d="M641.994,96l35.777,64l35.776-64H641.994z"/>
	<path shape-rendering="geometricPrecision" fill="#460055" d="M713.549,96l-35.776,64h71.554L713.549,96z"/>
	<path shape-rendering="geometricPrecision" fill="#DC0055" d="M-109.325,160l35.777,64l35.777-64H-109.325z"/>
	<path shape-rendering="geometricPrecision" fill="#C80055" d="M-37.771,160l-35.777,64h71.555L-37.771,160z"/>
	<path shape-rendering="geometricPrecision" fill="#D60055" d="M-37.771,160l35.777,64l35.776-64H-37.771z"/>
	<path shape-rendering="geometricPrecision" fill="#D60055" d="M33.783,160l-35.776,64h71.554L33.783,160z"/>
	<path shape-rendering="geometricPrecision" fill="#BB0055" d="M33.783,160l35.777,64l35.777-64H33.783z"/>
	<path shape-rendering="geometricPrecision" fill="#AA0055" d="M105.338,160l-35.777,64h71.555L105.338,160z"/>
	<path shape-rendering="geometricPrecision" fill="#A50055" d="M105.338,160l35.777,64l35.776-64H105.338z"/>
	<path shape-rendering="geometricPrecision" fill="#FFFFFF" d="M176.892,160l-35.776,64h71.554L176.892,160z"/>
	<path shape-rendering="geometricPrecision" fill="#FFFFFF" d="M176.892,160l35.777,64l35.777-64H176.892z"/>
	<path shape-rendering="geometricPrecision" fill="#FFFFFF" d="M248.446,160l-35.777,64h71.555L248.446,160z"/>
	<path shape-rendering="geometricPrecision" fill="#FFFFFF" d="M248.446,160l35.777,64L320,160H248.446z"/>
	<path shape-rendering="geometricPrecision" fill="#FFFFFF" d="M320.001,160l-35.777,64h71.554L320.001,160z"/>
	<path shape-rendering="geometricPrecision" fill="#FFFFFF" d="M320.001,160l35.776,64l35.776-64H320.001z"/>
	<path shape-rendering="geometricPrecision" fill="#FFFFFF" d="M391.555,160l-35.776,64h71.555L391.555,160z"/>
	<path shape-rendering="geometricPrecision" fill="#FFFFFF" d="M391.555,160l35.777,64l35.776-64H391.555z"/>
	<path shape-rendering="geometricPrecision" fill="#FFFFFF" d="M463.108,160l-35.776,64h71.554L463.108,160z"/>
	<path shape-rendering="geometricPrecision" fill="#720055" d="M463.108,160l35.776,64l35.777-64H463.108z"/>
	<path shape-rendering="geometricPrecision" fill="#6D0055" d="M534.663,160l-35.777,64h71.556L534.663,160z"/>
	<path shape-rendering="geometricPrecision" fill="#5A0055" d="M534.663,160l35.777,64l35.775-64H534.663z"/>
	<path shape-rendering="geometricPrecision" fill="#630055" d="M606.217,160l-35.775,64h71.554L606.217,160z"/>
	<path shape-rendering="geometricPrecision" fill="#630055" d="M606.217,160l35.777,64l35.776-64H606.217z"/>
	<path shape-rendering="geometricPrecision" fill="#510055" d="M677.771,160l-35.777,64h71.555L677.771,160z"/>
	<path shape-rendering="geometricPrecision" fill="#4F0055" d="M677.771,160l35.776,64l35.776-64H677.771z"/>
	<path shape-rendering="geometricPrecision" fill="#D20055" d="M-73.548,224l-35.777,64h71.555L-73.548,224z"/>
	<path shape-rendering="geometricPrecision" fill="#C90055" d="M-73.548,224l35.777,64l35.777-64H-73.548z"/>
	<path shape-rendering="geometricPrecision" fill="#BA0055" d="M-1.993,224l-35.777,64h71.554L-1.993,224z"/>
	<path shape-rendering="geometricPrecision" fill="#C00055" d="M-1.993,224l35.776,64l35.777-64H-1.993z"/>
	<path shape-rendering="geometricPrecision" fill="#C00055" d="M69.561,224l-35.777,64h71.555L69.561,224z"/>
	<path shape-rendering="geometricPrecision" fill="#B10055" d="M69.561,224l35.777,64l35.777-64H69.561z"/>
	<path shape-rendering="geometricPrecision" fill="#FFFFFF" d="M141.115,224l-35.777,64h71.554L141.115,224z"/>
	<path shape-rendering="geometricPrecision" fill="#FFFFFF" d="M141.115,224l35.776,64l35.777-64H141.115z"/>
	<path shape-rendering="geometricPrecision" fill="#920055" d="M212.669,224l-35.777,64h71.555L212.669,224z"/>
	<path shape-rendering="geometricPrecision" fill="#8C0055" d="M212.669,224l35.777,64l35.777-64H212.669z"/>
	<path shape-rendering="geometricPrecision" fill="#8A0055" d="M284.224,224l-35.777,64h71.555L284.224,224z"/>
	<path shape-rendering="geometricPrecision" fill="#890055" d="M284.224,224l35.777,64l35.776-64H284.224z"/>
	<path shape-rendering="geometricPrecision" fill="#900055" d="M355.777,224l-35.776,64h71.554L355.777,224z"/>
	<path shape-rendering="geometricPrecision" fill="#760055" d="M355.777,224l35.776,64l35.777-64H355.777z"/>
	<path shape-rendering="geometricPrecision" fill="#7F0055" d="M427.332,224l-35.777,64h71.555L427.332,224z"/>
	<path shape-rendering="geometricPrecision" fill="#FFFFFF" d="M427.332,224l35.776,64l35.776-64H427.332z"/>
	<path shape-rendering="geometricPrecision" fill="#FFFFFF" d="M498.886,224l-35.776,64h71.555L498.886,224z"/>
	<path shape-rendering="geometricPrecision" fill="#740055" d="M498.886,224l35.777,64l35.776-64H498.886z"/>
	<path shape-rendering="geometricPrecision" fill="#6A0055" d="M570.44,224l-35.777,64h71.554L570.44,224z"/>
	<path shape-rendering="geometricPrecision" fill="#5C0055" d="M570.44,224l35.775,64l35.777-64H570.44z"/>
	<path shape-rendering="geometricPrecision" fill="#4D0055" d="M641.994,224l-35.777,64h71.556L641.994,224z"/>
	<path shape-rendering="geometricPrecision" fill="#420055" d="M641.994,224l35.777,64l35.776-64H641.994z"/>
	<path shape-rendering="geometricPrecision" fill="#400055" d="M713.549,224l-35.776,64h71.554L713.549,224z"/>
	<path shape-rendering="geometricPrecision" fill="#D50055" d="M-109.325,288l35.777,64l35.777-64H-109.325z"/>
	<path shape-rendering="geometricPrecision" fill="#BC0055" d="M-37.771,288l-35.777,64h71.555L-37.771,288z"/>
	<path shape-rendering="geometricPrecision" fill="#CD0055" d="M-37.771,288l35.777,64l35.776-64H-37.771z"/>
	<path shape-rendering="geometricPrecision" fill="#AF0055" d="M33.783,288l-35.776,64h71.554L33.783,288z"/>
	<path shape-rendering="geometricPrecision" fill="#C30055" d="M33.783,288l35.777,64l35.777-64H33.783z"/>
	<path shape-rendering="geometricPrecision" fill="#A40055" d="M105.338,288l-35.777,64h71.555L105.338,288z"/>
	<path shape-rendering="geometricPrecision" fill="#FFFFFF" d="M105.338,288l35.777,64l35.776-64H105.338z"/>
	<path shape-rendering="geometricPrecision" fill="#FFFFFF" d="M176.892,288l-35.776,64h71.554L176.892,288z"/>
	<path shape-rendering="geometricPrecision" fill="#8B0055" d="M176.892,288l35.777,64l35.777-64H176.892z"/>
	<path shape-rendering="geometricPrecision" fill="#FFFFFF" d="M248.446,288l-35.777,64h71.555L248.446,288z"/>
	<path shape-rendering="geometricPrecision" fill="#970055" d="M248.446,288l35.777,64L320,288H248.446z"/>
	<path shape-rendering="geometricPrecision" fill="#7A0055" d="M320.001,288l-35.777,64h71.554L320.001,288z"/>
	<path shape-rendering="geometricPrecision" fill="#8E0055" d="M320.001,288l35.776,64l35.776-64H320.001z"/>
	<path shape-rendering="geometricPrecision" fill="#FFFFFF" d="M391.555,288l-35.776,64h71.555L391.555,288z"/>
	<path shape-rendering="geometricPrecision" fill="#630055" d="M391.555,288l35.777,64l35.776-64H391.555z"/>
	<path shape-rendering="geometricPrecision" fill="#FFFFFF" d="M463.108,288l-35.776,64h71.554L463.108,288z"/>
	<path shape-rendering="geometricPrecision" fill="#FFFFFF" d="M463.108,288l35.776,64l35.777-64H463.108z"/>
	<path shape-rendering="geometricPrecision" fill="#4F0055" d="M534.663,288l-35.777,64h71.556L534.663,288z"/>
	<path shape-rendering="geometricPrecision" fill="#630055" d="M534.663,288l35.777,64l35.775-64H534.663z"/>
	<path shape-rendering="geometricPrecision" fill="#530055" d="M606.217,288l-35.775,64h71.554L606.217,288z"/>
	<path shape-rendering="geometricPrecision" fill="#550055" d="M606.217,288l35.777,64l35.776-64H606.217z"/>
	<path shape-rendering="geometricPrecision" fill="#370055" d="M677.771,288l-35.777,64h71.555L677.771,288z"/>
	<path shape-rendering="geometricPrecision" fill="#4B0055" d="M677.771,288l35.776,64l35.776-64H677.771z"/>
	<path shape-rendering="geometricPrecision" fill="#B90055" d="M-73.548,352l-35.777,63.999h71.555L-73.548,352z"/>
	<path shape-rendering="geometricPrecision" fill="#CF0055" d="M-73.548,352l35.777,63.999L-1.993,352H-73.548z"/>
	<path shape-rendering="geometricPrecision" fill="#C80055" d="M-1.993,352l-35.777,63.999h71.554L-1.993,352z"/>
	<path shape-rendering="geometricPrecision" fill="#A70055" d="M-1.993,352l35.776,63.999L69.561,352H-1.993z"/>
	<path shape-rendering="geometricPrecision" fill="#A50055" d="M69.561,352l-35.777,63.999h71.555L69.561,352z"/>
	<path shape-rendering="geometricPrecision" fill="#B00055" d="M69.561,352l35.777,63.999L141.115,352H69.561z"/>
	<path shape-rendering="geometricPrecision" fill="#900055" d="M141.115,352l-35.777,63.999h71.554L141.115,352z"/>
	<path shape-rendering="geometricPrecision" fill="#FFFFFF" d="M141.115,352l35.776,63.999L212.669,352H141.115z"/>
	<path shape-rendering="geometricPrecision" fill="#FFFFFF" d="M212.669,352l-35.777,63.999h71.555L212.669,352z"/>
	<path shape-rendering="geometricPrecision" fill="#FFFFFF" d="M212.669,352l35.777,63.999L284.224,352H212.669z"/>
	<path shape-rendering="geometricPrecision" fill="#FFFFFF" d="M284.224,352l-35.777,63.999h71.555L284.224,352z"/>
	<path shape-rendering="geometricPrecision" fill="#860055" d="M284.224,352l35.777,63.999L355.777,352H284.224z"/>
	<path shape-rendering="geometricPrecision" fill="#FFFFFF" d="M355.777,352l-35.776,63.999h71.554L355.777,352z"/>
	<path shape-rendering="geometricPrecision" fill="#FFFFFF" d="M355.777,352l35.776,63.999L427.332,352H355.777z"/>
	<path shape-rendering="geometricPrecision" fill="#FFFFFF" d="M427.332,352l-35.777,63.999h71.555L427.332,352z"/>
	<path shape-rendering="geometricPrecision" fill="#FFFFFF" d="M427.332,352l35.776,63.999L498.886,352H427.332z"/>
	<path shape-rendering="geometricPrecision" fill="#5D0055" d="M498.886,352l-35.776,63.999h71.555L498.886,352z"/>
	<path shape-rendering="geometricPrecision" fill="#480055" d="M498.886,352l35.777,63.999L570.44,352H498.886z"/>
	<path shape-rendering="geometricPrecision" fill="#430055" d="M570.44,352l-35.777,63.999h71.554L570.44,352z"/>
	<path shape-rendering="geometricPrecision" fill="#590055" d="M570.44,352l35.775,63.999L641.994,352H570.44z"/>
	<path shape-rendering="geometricPrecision" fill="#470055" d="M641.994,352l-35.777,63.999h71.556L641.994,352z"/>
	<path shape-rendering="geometricPrecision" fill="#2F0055" d="M641.994,352l35.777,63.999L713.549,352H641.994z"/>
	<path shape-rendering="geometricPrecision" fill="#450055" d="M713.549,352l-35.776,63.999h71.554L713.549,352z"/>
	<path shape-rendering="geometricPrecision" fill="#B30055" d="M-109.325,415.999L-73.548,480l35.777-64.001H-109.325z"/>
	<path shape-rendering="geometricPrecision" fill="#BA0055" d="M-37.771,415.999L-73.548,480h71.555L-37.771,415.999z"/>
	<path shape-rendering="geometricPrecision" fill="#B80055" d="M-37.771,415.999L-1.993,480l35.776-64.001H-37.771z"/>
	<path shape-rendering="geometricPrecision" fill="#A60055" d="M33.783,415.999L-1.993,480h71.554L33.783,415.999z"/>
	<path shape-rendering="geometricPrecision" fill="#A80055" d="M33.783,415.999L69.561,480l35.777-64.001H33.783z"/>
	<path shape-rendering="geometricPrecision" fill="#A00055" d="M105.338,415.999L69.561,480h71.555L105.338,415.999z"/>
	<path shape-rendering="geometricPrecision" fill="#970055" d="M105.338,415.999L141.115,480l35.776-64.001H105.338z"/>
	<path shape-rendering="geometricPrecision" fill="#8A0055" d="M176.892,415.999L141.115,480h71.554L176.892,415.999z"/>
	<path shape-rendering="geometricPrecision" fill="#910055" d="M176.892,415.999L212.669,480l35.777-64.001H176.892z"/>
	<path shape-rendering="geometricPrecision" fill="#860055" d="M248.446,415.999L212.669,480h71.555L248.446,415.999z"/>
	<path shape-rendering="geometricPrecision" fill="#FFFFFF" d="M248.446,415.999L284.224,480l35.777-64.001H248.446z"/>
	<path shape-rendering="geometricPrecision" fill="#FFFFFF" d="M320.001,415.999L284.224,480h71.554L320.001,415.999z"/>
	<path shape-rendering="geometricPrecision" fill="#FFFFFF" d="M320.001,415.999L355.777,480l35.776-64.001H320.001z"/>
	<path shape-rendering="geometricPrecision" fill="#5C0055" d="M391.555,415.999L355.777,480h71.555L391.555,415.999z"/>
	<path shape-rendering="geometricPrecision" fill="#640055" d="M391.555,415.999L427.332,480l35.776-64.001H391.555z"/>
	<path shape-rendering="geometricPrecision" fill="#600055" d="M463.108,415.999L427.332,480h71.554L463.108,415.999z"/>
	<path shape-rendering="geometricPrecision" fill="#520055" d="M463.108,415.999L498.886,480l35.777-64.001H463.108z"/>
	<path shape-rendering="geometricPrecision" fill="#4C0055" d="M534.663,415.999L498.886,480h71.556L534.663,415.999z"/>
	<path shape-rendering="geometricPrecision" fill="#4F0055" d="M534.663,415.999L570.44,480l35.775-64.001H534.663z"/>
	<path shape-rendering="geometricPrecision" fill="#530055" d="M606.217,415.999L570.44,480h71.554L606.217,415.999z"/>
	<path shape-rendering="geometricPrecision" fill="#3F0055" d="M606.217,415.999L641.994,480l35.777-64.001H606.217z"/>
	<path shape-rendering="geometricPrecision" fill="#300055" d="M677.771,415.999L641.994,480h71.555L677.771,415.999z"/>
	<path shape-rendering="geometricPrecision" fill="#2C0055" d="M677.771,415.999L713.549,480l35.776-64.001H677.771z"/>
	<path shape-rendering="geometricPrecision" fill="#B30055" d="M-73.548,480l-35.777,64h71.555L-73.548,480z"/>
	<path shape-rendering="geometricPrecision" fill="#BD0055" d="M-73.548,480l35.777,64l35.777-64H-73.548z"/>
	<path shape-rendering="geometricPrecision" fill="#A50055" d="M-1.993,480l-35.777,64h71.554L-1.993,480z"/>
	<path shape-rendering="geometricPrecision" fill="#AC0055" d="M-1.993,480l35.776,64l35.777-64H-1.993z"/>
	<path shape-rendering="geometricPrecision" fill="#A40055" d="M69.561,480l-35.777,64h71.555L69.561,480z"/>
	<path shape-rendering="geometricPrecision" fill="#8F0055" d="M69.561,480l35.777,64l35.777-64H69.561z"/>
	<path shape-rendering="geometricPrecision" fill="#950055" d="M141.115,480l-35.777,64h71.554L141.115,480z"/>
	<path shape-rendering="geometricPrecision" fill="#9B0055" d="M141.115,480l35.776,64l35.777-64H141.115z"/>
	<path shape-rendering="geometricPrecision" fill="#8C0055" d="M212.669,480l-35.777,64h71.555L212.669,480z"/>
	<path shape-rendering="geometricPrecision" fill="#8C0055" d="M212.669,480l35.777,64l35.777-64H212.669z"/>
	<path shape-rendering="geometricPrecision" fill="#7D0055" d="M284.224,480l-35.777,64h71.555L284.224,480z"/>
	<path shape-rendering="geometricPrecision" fill="#690055" d="M284.224,480l35.777,64l35.776-64H284.224z"/>
	<path shape-rendering="geometricPrecision" fill="#720055" d="M355.777,480l-35.776,64h71.554L355.777,480z"/>
	<path shape-rendering="geometricPrecision" fill="#700055" d="M355.777,480l35.776,64l35.777-64H355.777z"/>
	<path shape-rendering="geometricPrecision" fill="#520055" d="M427.332,480l-35.777,64h71.555L427.332,480z"/>
	<path shape-rendering="geometricPrecision" fill="#550055" d="M427.332,480l35.776,64l35.776-64H427.332z"/>
	<path shape-rendering="geometricPrecision" fill="#580055" d="M498.886,480l-35.776,64h71.555L498.886,480z"/>
	<path shape-rendering="geometricPrecision" fill="#3F0055" d="M498.886,480l35.777,64l35.776-64H498.886z"/>
	<path shape-rendering="geometricPrecision" fill="#3F0055" d="M570.44,480l-35.777,64h71.554L570.44,480z"/>
	<path shape-rendering="geometricPrecision" fill="#3C0055" d="M570.44,480l35.775,64l35.777-64H570.44z"/>
	<path shape-rendering="geometricPrecision" fill="#3F0055" d="M641.994,480l-35.777,64h71.556L641.994,480z"/>
	<path shape-rendering="geometricPrecision" fill="#390055" d="M641.994,480l35.777,64l35.776-64H641.994z"/>
	<path shape-rendering="geometricPrecision" fill="#360055" d="M713.549,480l-35.776,64h71.554L713.549,480z"/>
	<path shape-rendering="geometricPrecision" fill="#AA0055" d="M-109.325,544l35.777,64l35.777-64H-109.325z"/>
	<path shape-rendering="geometricPrecision" fill="#9F0055" d="M-37.771,544l-35.777,64h71.555L-37.771,544z"/>
	<path shape-rendering="geometricPrecision" fill="#9F0055" d="M-37.771,544l35.777,64l35.776-64H-37.771z"/>
	<path shape-rendering="geometricPrecision" fill="#9A0055" d="M33.783,544l-35.776,64h71.554L33.783,544z"/>
	<path shape-rendering="geometricPrecision" fill="#A80055" d="M33.783,544l35.777,64l35.777-64H33.783z"/>
	<path shape-rendering="geometricPrecision" fill="#950055" d="M105.338,544l-35.777,64h71.555L105.338,544z"/>
	<path shape-rendering="geometricPrecision" fill="#970055" d="M105.338,544l35.777,64l35.776-64H105.338z"/>
	<path shape-rendering="geometricPrecision" fill="#7D0055" d="M176.892,544l-35.776,64h71.554L176.892,544z"/>
	<path shape-rendering="geometricPrecision" fill="#750055" d="M176.892,544l35.777,64l35.777-64H176.892z"/>
	<path shape-rendering="geometricPrecision" fill="#810055" d="M248.446,544l-35.777,64h71.555L248.446,544z"/>
	<path shape-rendering="geometricPrecision" fill="#6C0055" d="M248.446,544l35.777,64L320,544H248.446z"/>
	<path shape-rendering="geometricPrecision" fill="#6B0055" d="M320.001,544l-35.777,64h71.554L320.001,544z"/>
	<path shape-rendering="geometricPrecision" fill="#6D0055" d="M320.001,544l35.776,64l35.776-64H320.001z"/>
	<path shape-rendering="geometricPrecision" fill="#670055" d="M391.555,544l-35.776,64h71.555L391.555,544z"/>
	<path shape-rendering="geometricPrecision" fill="#4A0055" d="M391.555,544l35.777,64l35.776-64H391.555z"/>
	<path shape-rendering="geometricPrecision" fill="#430055" d="M463.108,544l-35.776,64h71.554L463.108,544z"/>
	<path shape-rendering="geometricPrecision" fill="#550055" d="M463.108,544l35.776,64l35.777-64H463.108z"/>
	<path shape-rendering="geometricPrecision" fill="#3E0055" d="M534.663,544l-35.777,64h71.556L534.663,544z"/>
	<path shape-rendering="geometricPrecision" fill="#350055" d="M534.663,544l35.777,64l35.775-64H534.663z"/>
	<path shape-rendering="geometricPrecision" fill="#440055" d="M606.217,544l-35.775,64h71.554L606.217,544z"/>
	<path shape-rendering="geometricPrecision" fill="#2A0055" d="M606.217,544l35.777,64l35.776-64H606.217z"/>
	<path shape-rendering="geometricPrecision" fill="#1C0055" d="M677.771,544l-35.777,64h71.555L677.771,544z"/>
	<path shape-rendering="geometricPrecision" fill="#320055" d="M677.771,544l35.776,64l35.776-64H677.771z"/>
	<path shape-rendering="geometricPrecision" fill="#A40055" d="M-73.548,608l-35.777,64h71.555L-73.548,608z"/>
	<path shape-rendering="geometricPrecision" fill="#9A0055" d="M-73.548,608l35.777,64l35.777-64H-73.548z"/>
	<path shape-rendering="geometricPrecision" fill="#AC0055" d="M-1.993,608l-35.777,64h71.554L-1.993,608z"/>
	<path shape-rendering="geometricPrecision" fill="#A70055" d="M-1.993,608l35.776,64l35.777-64H-1.993z"/>
	<path shape-rendering="geometricPrecision" fill="#890055" d="M69.561,608l-35.777,64h71.555L69.561,608z"/>
	<path shape-rendering="geometricPrecision" fill="#8B0055" d="M69.561,608l35.777,64l35.777-64H69.561z"/>
	<path shape-rendering="geometricPrecision" fill="#840055" d="M141.115,608l-35.777,64h71.554L141.115,608z"/>
	<path shape-rendering="geometricPrecision" fill="#7D0055" d="M141.115,608l35.776,64l35.777-64H141.115z"/>
	<path shape-rendering="geometricPrecision" fill="#750055" d="M212.669,608l-35.777,64h71.555L212.669,608z"/>
	<path shape-rendering="geometricPrecision" fill="#670055" d="M212.669,608l35.777,64l35.777-64H212.669z"/>
	<path shape-rendering="geometricPrecision" fill="#600055" d="M284.224,608l-35.777,64h71.555L284.224,608z"/>
	<path shape-rendering="geometricPrecision" fill="#550055" d="M284.224,608l35.777,64l35.776-64H284.224z"/>
	<path shape-rendering="geometricPrecision" fill="#530055" d="M355.777,608l-35.776,64h71.554L355.777,608z"/>
	<path shape-rendering="geometricPrecision" fill="#4E0055" d="M355.777,608l35.776,64l35.777-64H355.777z"/>
	<path shape-rendering="geometricPrecision" fill="#480055" d="M427.332,608l-35.777,64h71.555L427.332,608z"/>
	<path shape-rendering="geometricPrecision" fill="#540055" d="M427.332,608l35.776,64l35.776-64H427.332z"/>
	<path shape-rendering="geometricPrecision" fill="#510055" d="M498.886,608l-35.776,64h71.555L498.886,608z"/>
	<path shape-rendering="geometricPrecision" fill="#4A0055" d="M498.886,608l35.777,64l35.776-64H498.886z"/>
	<path shape-rendering="geometricPrecision" fill="#3E0055" d="M570.44,608l-35.777,64h71.554L570.44,608z"/>
	<path shape-rendering="geometricPrecision" fill="#380055" d="M570.44,608l35.775,64l35.777-64H570.44z"/>
	<path shape-rendering="geometricPrecision" fill="#250055" d="M641.994,608l-35.777,64h71.556L641.994,608z"/>
	<path shape-rendering="geometricPrecision" fill="#1B0055" d="M641.994,608l35.777,64l35.776-64H641.994z"/>
	<path shape-rendering="geometricPrecision" fill="#120055" d="M713.549,608l-35.776,64h71.554L713.549,608z"/>
</g>
<g clip-path="url(#SVGID_2_)">
	<g>
		
			<radialGradient id="SVGID_3_" cx="175.5073" cy="361.9941" r="364.081" gradientTransform="matrix(1 0 0 -1 14 565)" gradientUnits="userSpaceOnUse">
			<stop  offset="0" style="stop-color:#FFFFFF"/>
			<stop  offset="1" style="stop-color:#CCCCCC"/>
		</radialGradient>
		<path fill="url(#SVGID_3_)" d="M498.886,224l-35.776-64h-71.555h-71.554h-71.555h-71.555l-35.776,64l-35.777,64l35.777,64
			l35.776,63.999h71.555L284.224,480h71.554l35.776-64.001h71.555L498.886,352l35.777-64L498.886,224z M427.332,352l-35.777-64
			l-35.776,64l-35.776,63.999L284.224,352l-35.777-64l-35.777,64l-35.777-64l35.777-64h71.555h71.554h71.555l35.776,64L427.332,352z
			"/>
	</g>
</g>
</svg>
