<?xml version="1.0" encoding="utf-8"?>
<!-- Generator: Adobe Illustrator 16.0.0, SVG Export Plug-In . SVG Version: 6.00 Build 0)  -->
<!DOCTYPE svg PUBLIC "-//W3C//DTD SVG 1.1//EN" "http://www.w3.org/Graphics/SVG/1.1/DTD/svg11.dtd">
<svg version="1.1" id="Calque_1" xmlns="http://www.w3.org/2000/svg" xmlns:xlink="http://www.w3.org/1999/xlink" x="0px" y="0px"
	 width="48px" height="48px" viewBox="0 0 48 48" enable-background="new 0 0 48 48" xml:space="preserve">
<g id="import" display="none">
	
		<polyline display="inline" fill="#FFFFFF" stroke="#000000" stroke-width="2" stroke-linecap="round" stroke-linejoin="round" stroke-miterlimit="10" points="
		30,14 38,14 38,35 30,43 10,43 10,14 18,14 	"/>
	
		<polyline display="inline" fill="none" stroke="#000000" stroke-width="2" stroke-linecap="round" stroke-linejoin="round" stroke-miterlimit="10" points="
		38,35 30,35 30,43 	"/>
	
		<polyline display="inline" fill="none" stroke="#000000" stroke-width="2" stroke-linecap="round" stroke-linejoin="round" stroke-miterlimit="10" points="
		18,9 24,3 30,9 	"/>
	
		<line display="inline" fill="none" stroke="#000000" stroke-width="2" stroke-linecap="round" stroke-linejoin="round" stroke-miterlimit="10" x1="24" y1="3" x2="24" y2="25"/>
</g>
<g id="floppydisk" display="none">
	
		<polygon display="inline" fill="none" stroke="#000000" stroke-width="2" stroke-linecap="round" stroke-linejoin="round" stroke-miterlimit="10" points="
		42,42 6,42 6,6 36,6 42,12 	"/>
	
		<rect x="15" y="6" display="inline" fill="none" stroke="#000000" stroke-width="2" stroke-linecap="round" stroke-linejoin="round" stroke-miterlimit="10" width="18" height="12"/>
	
		<rect x="10" y="22" display="inline" fill="none" stroke="#000000" stroke-width="2" stroke-linecap="round" stroke-linejoin="round" stroke-miterlimit="10" width="28" height="20"/>
	
		<rect x="26" y="9" display="inline" fill="none" stroke="#000000" stroke-width="2" stroke-linecap="round" stroke-linejoin="round" stroke-miterlimit="10" width="4" height="6"/>
</g>
<g id="add" display="none">
	
		<polygon display="inline" fill="none" stroke="#000000" stroke-width="2" stroke-linecap="round" stroke-linejoin="round" stroke-miterlimit="10" points="
		14,41 4,24 14,7 34,7 44,24 34,41 	"/>
	
		<line display="inline" fill="none" stroke="#000000" stroke-width="2" stroke-linecap="round" stroke-linejoin="round" stroke-miterlimit="10" x1="17" y1="24" x2="31" y2="24"/>
	
		<line display="inline" fill="none" stroke="#000000" stroke-width="2" stroke-linecap="round" stroke-linejoin="round" stroke-miterlimit="10" x1="24" y1="31" x2="24" y2="17"/>
</g>
<g id="icon-eraser" display="none">
	
		<line display="inline" fill="none" stroke="#000000" stroke-width="2" stroke-miterlimit="10" x1="4" y1="41" x2="25.001" y2="41"/>
	<path display="inline" d="M18.64,8.42c1.168-1.17,3.06-1.17,4.23,0l10.59,10.62L16.51,35.99L5.92,25.37
		c-1.17-1.17-1.17-3.06,0-4.23L18.64,8.42z"/>
	<path display="inline" fill="none" stroke="#000000" stroke-width="2" stroke-miterlimit="10" d="M44.08,29.63
		c1.171,1.167,1.171,3.06,0,4.229L36.973,41H21.521l-5.011-5.01L5.92,25.37c-1.17-1.17-1.17-3.06,0-4.23L18.64,8.421
		c1.168-1.17,3.06-1.17,4.23,0l10.59,10.62L44.08,29.63z"/>
</g>
<g id="hand" display="none">
	<path display="inline" fill="none" stroke="#030104" stroke-width="2" stroke-linejoin="round" stroke-miterlimit="10" d="
		M37.654,9.927c-1.293,0-2.346,1.05-2.346,2.345v10.166c0,0.433-0.35,0.781-0.781,0.781s-0.78-0.348-0.78-0.781V7.582
		c0-1.295-1.054-2.345-2.347-2.345c-1.297,0-2.346,1.05-2.346,2.345v13.292c0,0.43-0.351,0.782-0.781,0.782
		c-0.434,0-0.781-0.352-0.781-0.782V6.018c0-1.295-1.053-2.345-2.346-2.345c-1.298,0-2.35,1.05-2.35,2.345v14.855
		c0,0.43-0.349,0.782-0.781,0.782c-0.433,0-0.782-0.353-0.782-0.782V9.145c0-1.295-1.05-2.345-2.345-2.345s-2.345,1.05-2.345,2.345
		v19.544l-3.167-4.332c-0.938-1.449-2.769-1.933-4.111-1.104c-1.336,0.849-1.668,2.701-0.742,4.143c0,0,5.106,7.728,7.284,11.037
		c2.176,3.31,5.703,5.895,12.293,5.895C39.023,44.327,40,35.896,40,33.381c0-2.512,0-21.109,0-21.109
		C40,10.977,38.948,9.927,37.654,9.927z"/>
</g>
<g id="fullscreen" display="none">
	
		<rect x="3" y="9" display="inline" fill="none" stroke="#000000" stroke-width="2" stroke-linecap="round" stroke-linejoin="round" stroke-miterlimit="10" width="42" height="30"/>
	
		<rect x="3" y="24" display="inline" fill="none" stroke="#000000" stroke-width="2" stroke-linecap="round" stroke-linejoin="round" stroke-miterlimit="10" width="21" height="15"/>
</g>
<g id="download" display="none">
	
		<polygon display="inline" fill="none" stroke="#000000" stroke-width="2" stroke-linecap="round" stroke-linejoin="round" stroke-miterlimit="10" points="
		42,24 33,24 33,4 15,4 15,24 6,24 24,44 	"/>
</g>
<g id="preview" display="none">
	<path display="inline" fill="none" stroke="#000000" stroke-width="2" stroke-linejoin="round" stroke-miterlimit="10" d="M24,11
		C11.849,11,2,24,2,24s9.849,13,22,13c12.15,0,22-13,22-13S36.15,11,24,11z"/>
	<circle display="inline" fill="none" stroke="#000000" stroke-width="2" stroke-miterlimit="10" cx="24" cy="24" r="9"/>
</g>
<g id="pen" display="none">
	<polygon display="inline" fill="none" stroke="#000000" stroke-width="2" stroke-linejoin="round" stroke-miterlimit="10" points="
		40.43,28.915 43.5,43.491 28.923,40.422 9.363,20.861 20.871,9.355 	"/>
	<path display="inline" fill="none" stroke="#000000" stroke-width="2" stroke-miterlimit="10" d="M8.971,20.487l-3.837-3.836
		c-0.846-0.846-0.846-2.222,0-3.068l8.439-8.438c0.847-0.848,2.221-0.848,3.069,0l3.834,3.835"/>
	<polyline display="inline" fill="none" stroke="#000000" stroke-width="2" stroke-linecap="round" stroke-miterlimit="10" points="
		32.368,37.746 12.423,17.803 17.792,12.433 37.738,32.377 	"/>
	<path display="inline" fill="none" stroke="#000000" stroke-width="2" stroke-linecap="round" stroke-miterlimit="10" d="
		M31.984,37.363c-1.092-1.092-2.659-1.286-3.506-0.439c-0.852,0.852-0.654,2.419,0.437,3.506"/>
	<path display="inline" fill="none" stroke="#000000" stroke-width="2" stroke-linecap="round" stroke-miterlimit="10" d="
		M40.422,28.923c-1.088-1.087-2.66-1.282-3.508-0.435c-0.846,0.846-0.65,2.414,0.441,3.506"/>
	<path display="inline" fill="none" stroke="#000000" stroke-width="2" stroke-linecap="round" stroke-miterlimit="10" d="
		M37.355,31.994c-1.273-1.273-3.506-1.1-4.987,0.383c-1.483,1.482-1.656,3.715-0.384,4.986"/>
	<path display="inline" d="M42.068,36.695c-1.305,0.212-2.561,0.812-3.563,1.815c-0.999,1-1.601,2.247-1.815,3.546l6.812,1.435
		L42.068,36.695z"/>
	
		<line display="inline" fill="none" stroke="#000000" stroke-width="2" stroke-miterlimit="10" x1="7.437" y1="18.953" x2="18.942" y2="7.447"/>
</g>
<g id="picker" display="none">
	<path display="inline" d="M14.777,7.736L14.07,8.444l-3.536-3.536c-1.17-1.17-3.073-1.17-4.243,0L4.877,6.322
		c-1.17,1.17-1.17,3.073,0,4.243l3.536,3.536l-0.708,0.707c-0.781,0.781-0.781,2.047,0,2.829l2.829,2.828
		c0.781,0.781,2.047,0.781,2.829,0l7.071-7.071c0.781-0.781,0.781-2.047,0-2.829l-2.828-2.829
		C16.824,6.956,15.558,6.956,14.777,7.736z"/>
	
		<line display="inline" fill="none" stroke="#000000" stroke-width="2" stroke-linecap="round" stroke-linejoin="round" stroke-miterlimit="10" x1="35.99" y1="40.264" x2="40.232" y2="36.021"/>
	
		<path display="inline" fill="none" stroke="#000000" stroke-width="2" stroke-linecap="round" stroke-linejoin="round" stroke-miterlimit="10" d="
		M43.414,41.324l-1.061-1.061c0.588-0.588,0.588-1.535,0-2.121L9.827,5.615c-0.781-0.781-2.047-0.781-2.829,0L5.584,7.029
		c-0.781,0.781-0.781,2.047,0,2.829l32.527,32.527c0.586,0.588,1.533,0.588,2.121,0c0,0,1.061,1.057,1.061,1.061"/>
</g>
<g id="selection">
	<g>
		<g>
			<polyline fill="none" stroke="#000000" stroke-width="2" stroke-linecap="round" stroke-linejoin="round" points="3,13 3,9 7,9 
							"/>
			
				<line fill="none" stroke="#000000" stroke-width="2" stroke-linecap="round" stroke-linejoin="round" stroke-dasharray="6.8,3.4" x1="10.4" y1="9" x2="39.3" y2="9"/>
			<polyline fill="none" stroke="#000000" stroke-width="2" stroke-linecap="round" stroke-linejoin="round" points="41,9 45,9 
				45,13 			"/>
			
				<line fill="none" stroke="#000000" stroke-width="2" stroke-linecap="round" stroke-linejoin="round" stroke-dasharray="6.2857,3.1429" x1="45" y1="16.143" x2="45" y2="33.429"/>
			<polyline fill="none" stroke="#000000" stroke-width="2" stroke-linecap="round" stroke-linejoin="round" points="45,35 45,39 
				41,39 			"/>
			
				<line fill="none" stroke="#000000" stroke-width="2" stroke-linecap="round" stroke-linejoin="round" stroke-dasharray="6.8,3.4" x1="37.6" y1="39" x2="8.7" y2="39"/>
			<polyline fill="none" stroke="#000000" stroke-width="2" stroke-linecap="round" stroke-linejoin="round" points="7,39 3,39 
				3,35 			"/>
			
				<line fill="none" stroke="#000000" stroke-width="2" stroke-linecap="round" stroke-linejoin="round" stroke-dasharray="6.2857,3.1429" x1="3" y1="31.857" x2="3" y2="14.571"/>
		</g>
	</g>
</g>
</svg>
