<?xml version="1.0" encoding="utf-8"?>
<!-- Generator: Adobe Illustrator 16.0.0, SVG Export Plug-In . SVG Version: 6.00 Build 0)  -->
<!DOCTYPE svg PUBLIC "-//W3C//DTD SVG 1.1//EN" "http://www.w3.org/Graphics/SVG/1.1/DTD/svg11.dtd">
<svg version="1.1" id="Calque_1" xmlns="http://www.w3.org/2000/svg" xmlns:xlink="http://www.w3.org/1999/xlink" x="0px" y="0px"
	 width="48px" height="48px" viewBox="0 0 48 48" enable-background="new 0 0 48 48" xml:space="preserve">
<g id="import" display="none">
	
		<polyline display="inline" fill="#FFFFFF" stroke="#000000" stroke-width="2" stroke-linecap="round" stroke-linejoin="round" stroke-miterlimit="10" points="
		30,14 38,14 38,35 30,43 10,43 10,14 18,14 	"/>
	
		<polyline display="inline" fill="none" stroke="#000000" stroke-width="2" stroke-linecap="round" stroke-linejoin="round" stroke-miterlimit="10" points="
		38,35 30,35 30,43 	"/>
	
		<polyline display="inline" fill="none" stroke="#000000" stroke-width="2" stroke-linecap="round" stroke-linejoin="round" stroke-miterlimit="10" points="
		18,9 24,3 30,9 	"/>
	
		<line display="inline" fill="none" stroke="#000000" stroke-width="2" stroke-linecap="round" stroke-linejoin="round" stroke-miterlimit="10" x1="24" y1="3" x2="24" y2="25"/>
</g>
<g id="floppydisk" display="none">
	
		<polygon display="inline" fill="none" stroke="#000000" stroke-width="2" stroke-linecap="round" stroke-linejoin="round" stroke-miterlimit="10" points="
		42,42 6,42 6,6 36,6 42,12 	"/>
	
		<rect x="15" y="6" display="inline" fill="none" stroke="#000000" stroke-width="2" stroke-linecap="round" stroke-linejoin="round" stroke-miterlimit="10" width="18" height="12"/>
	
		<rect x="10" y="22" display="inline" fill="none" stroke="#000000" stroke-width="2" stroke-linecap="round" stroke-linejoin="round" stroke-miterlimit="10" width="28" height="20"/>
	
		<rect x="26" y="9" display="inline" fill="none" stroke="#000000" stroke-width="2" stroke-linecap="round" stroke-linejoin="round" stroke-miterlimit="10" width="4" height="6"/>
</g>
<g id="add" display="none">
	
		<polygon display="inline" fill="none" stroke="#000000" stroke-width="2" stroke-linecap="round" stroke-linejoin="round" stroke-miterlimit="10" points="
		14,41 4,24 14,7 34,7 44,24 34,41 	"/>
	
		<line display="inline" fill="none" stroke="#000000" stroke-width="2" stroke-linecap="round" stroke-linejoin="round" stroke-miterlimit="10" x1="17" y1="24" x2="31" y2="24"/>
	
		<line display="inline" fill="none" stroke="#000000" stroke-width="2" stroke-linecap="round" stroke-linejoin="round" stroke-miterlimit="10" x1="24" y1="31" x2="24" y2="17"/>
</g>
<g id="icon-eraser" display="none">
	
		<line display="inline" fill="none" stroke="#000000" stroke-width="2" stroke-miterlimit="10" x1="23.957" y1="41" x2="44.958" y2="41"/>
	<path display="inline" d="M43.038,21.14c1.17,1.17,1.17,3.06,0,4.23l-10.59,10.62l-16.95-16.95l10.59-10.62
		c1.171-1.17,3.063-1.17,4.23,0L43.038,21.14z"/>
	<path display="inline" fill="none" stroke="#000000" stroke-width="2" stroke-miterlimit="10" d="M15.498,19.041l10.59-10.62
		c1.171-1.17,3.063-1.17,4.23,0l12.72,12.719c1.17,1.17,1.17,3.06,0,4.23l-10.59,10.62L27.438,41H11.986l-7.108-7.14
		c-1.171-1.171-1.171-3.063,0-4.23L15.498,19.041z"/>
</g>
<g id="hand" display="none">
	<path display="inline" fill="none" stroke="#030104" stroke-width="2" stroke-linejoin="round" stroke-miterlimit="10" d="
		M37.655,9.927c-1.294,0-2.346,1.05-2.346,2.345v10.166c0,0.433-0.349,0.781-0.782,0.781c-0.431,0-0.78-0.348-0.78-0.781V7.582
		c0-1.295-1.053-2.345-2.346-2.345c-1.298,0-2.346,1.05-2.346,2.345v13.292c0,0.43-0.35,0.782-0.781,0.782
		c-0.433,0-0.782-0.352-0.782-0.782V6.018c0-1.295-1.052-2.345-2.346-2.345c-1.298,0-2.348,1.05-2.348,2.345v14.855
		c0,0.43-0.349,0.782-0.781,0.782c-0.433,0-0.782-0.352-0.782-0.782V9.145c0-1.295-1.05-2.345-2.345-2.345s-2.345,1.05-2.345,2.345
		V28.69l-3.167-4.331c-0.938-1.449-2.769-1.933-4.111-1.104c-1.336,0.849-1.668,2.701-0.742,4.141c0,0,5.106,7.728,7.284,11.037
		c2.176,3.31,5.703,5.895,12.294,5.895C39.024,44.327,40,35.896,40,33.381c0-2.512,0-21.109,0-21.109
		C40,10.977,38.948,9.927,37.655,9.927z"/>
</g>
<g id="fullscreen" display="none">
	
		<rect x="3" y="9" display="inline" fill="none" stroke="#000000" stroke-width="2" stroke-linecap="round" stroke-linejoin="round" stroke-miterlimit="10" width="42" height="30"/>
	
		<rect x="3" y="24" display="inline" fill="none" stroke="#000000" stroke-width="2" stroke-linecap="round" stroke-linejoin="round" stroke-miterlimit="10" width="21" height="15"/>
</g>
<g id="download" display="none">
	
		<polygon display="inline" fill="none" stroke="#000000" stroke-width="2" stroke-linecap="round" stroke-linejoin="round" stroke-miterlimit="10" points="
		42,24 33,24 33,4 15,4 15,24 6,24 24,44 	"/>
</g>
<g id="preview" display="none">
	<path display="inline" fill="none" stroke="#000000" stroke-width="2" stroke-linejoin="round" stroke-miterlimit="10" d="M24,11
		C11.849,11,2,24,2,24s9.849,13,22,13c12.15,0,22-13,22-13S36.15,11,24,11z"/>
	<circle display="inline" fill="none" stroke="#000000" stroke-width="2" stroke-miterlimit="10" cx="24" cy="24" r="9"/>
</g>
<g id="pen" display="none">
	<polygon display="inline" fill="none" stroke="#000000" stroke-width="2" stroke-linejoin="round" stroke-miterlimit="10" points="
		40.43,28.915 43.5,43.491 28.923,40.422 9.363,20.861 20.871,9.355 	"/>
	<path display="inline" fill="none" stroke="#000000" stroke-width="2" stroke-miterlimit="10" d="M8.971,20.487l-3.837-3.836
		c-0.846-0.846-0.846-2.222,0-3.068l8.439-8.438c0.847-0.848,2.221-0.848,3.069,0l3.834,3.835"/>
	<polyline display="inline" fill="none" stroke="#000000" stroke-width="2" stroke-linecap="round" stroke-miterlimit="10" points="
		32.368,37.746 12.423,17.803 17.792,12.433 37.739,32.377 	"/>
	<path display="inline" fill="none" stroke="#000000" stroke-width="2" stroke-linecap="round" stroke-miterlimit="10" d="
		M31.985,37.363c-1.092-1.091-2.66-1.286-3.507-0.439c-0.85,0.851-0.654,2.419,0.437,3.506"/>
	<path display="inline" fill="none" stroke="#000000" stroke-width="2" stroke-linecap="round" stroke-miterlimit="10" d="
		M40.422,28.923c-1.088-1.087-2.66-1.282-3.508-0.435c-0.846,0.846-0.65,2.414,0.441,3.506"/>
	<path display="inline" fill="none" stroke="#000000" stroke-width="2" stroke-linecap="round" stroke-miterlimit="10" d="
		M37.355,31.994c-1.273-1.274-3.505-1.1-4.987,0.383c-1.483,1.483-1.656,3.715-0.383,4.986"/>
	<path display="inline" d="M42.068,36.695c-1.305,0.212-2.559,0.813-3.563,1.817c-0.999,1-1.601,2.247-1.815,3.544l6.811,1.435
		L42.068,36.695z"/>
	
		<line display="inline" fill="none" stroke="#000000" stroke-width="2" stroke-miterlimit="10" x1="7.437" y1="18.953" x2="18.942" y2="7.447"/>
</g>
</svg>
